<svg xmlns="http://www.w3.org/2000/svg" viewBox="0 0 394.14 211.63"><defs><style>.cls-1,.cls-3{fill:#231f20;}.cls-2,.cls-4{fill:#8b181b;}.cls-2,.cls-3{fill-rule:evenodd;}.cls-5,.cls-6,.cls-7{fill:#8b191c;stroke:#8b191c;stroke-miterlimit:10;}.cls-5{stroke-width:2px;}.cls-6{stroke-width:3px;}.cls-7{stroke-width:4px;}</style></defs><g id="Layer_2" data-name="Layer 2"><g id="positive"><g id="logo"><path d="M11,186.84V163H22q3.45,0,5,1.91a6.64,6.64,0,0,1,1.58,4.35,5.87,5.87,0,0,1-.92,3.22,4.69,4.69,0,0,1-2.73,2A5.2,5.2,0,0,1,29.17,180a8,8,0,0,1-1.49,4.75q-1.48,2.08-6.36,2.09Zm6.14-14.72H20.2a1.89,1.89,0,0,0,1.64-.64,2.32,2.32,0,0,0,.48-1.39c0-1.32-.74-2-2.23-2h-3Zm0,9.41h3.25a2.1,2.1,0,0,0,2.34-2.14,2.36,2.36,0,0,0-.55-1.51,2.43,2.43,0,0,0-2-.69h-3Z"/><path d="M43.91,186.84l-1.23-4.7H36.86l-1.31,4.7H30.14L36.85,163h7l6.82,23.86ZM38,176.93h3.52L39.75,170Z"/><path d="M50.48,179.94l6.19-1.23a3.72,3.72,0,0,0,4,2.89c1.67,0,2.51-.49,2.51-1.47a1.4,1.4,0,0,0-.58-1.2,5.79,5.79,0,0,0-2.08-.76Q54.83,177,53.2,175a6.93,6.93,0,0,1-1.62-4.57,7.42,7.42,0,0,1,2.33-5.61c1.56-1.49,3.79-2.24,6.71-2.24q6.65,0,8.78,5.86l-5.53,1.83a3.38,3.38,0,0,0-3.49-2.39c-1.45,0-2.18.49-2.18,1.49a1.22,1.22,0,0,0,.5,1,5.68,5.68,0,0,0,1.91.69,37.27,37.27,0,0,1,5.54,1.61,6.11,6.11,0,0,1,2.74,2.38,7.16,7.16,0,0,1,1.1,4A7.32,7.32,0,0,1,67.31,185a10.53,10.53,0,0,1-7,2.25Q52.34,187.21,50.48,179.94Z"/><path d="M81.72,168.7v18.14H75.4V168.7H70.89V163H86.23v5.72Z"/><path d="M97.52,187.21a9.42,9.42,0,0,1-7.47-3.34,13.16,13.16,0,0,1-2.9-8.93,13.82,13.82,0,0,1,2.77-8.84,10.06,10.06,0,0,1,15.06-.2,12.88,12.88,0,0,1,2.86,8.77q0,5.69-2.88,9.11A9.29,9.29,0,0,1,97.52,187.21Zm0-5.42a2.5,2.5,0,0,0,2.43-1.62,16.12,16.12,0,0,0,.74-5.92c0-4.14-1-6.22-3-6.22q-3.28,0-3.28,7.1Q94.34,181.79,97.49,181.79Z"/><path d="M130.77,177.73l6.1.4a10.12,10.12,0,0,1-3,6.73,8.74,8.74,0,0,1-6.2,2.35,8.91,8.91,0,0,1-7.15-3.22q-2.73-3.21-2.73-8.88a14.7,14.7,0,0,1,2.58-9.05,8.48,8.48,0,0,1,7.2-3.45,8.36,8.36,0,0,1,6.63,2.63,11.29,11.29,0,0,1,2.62,6.95l-6.22.37a5.62,5.62,0,0,0-.84-3.46,2.46,2.46,0,0,0-2-1.07q-3.15,0-3.15,7,0,3.9.82,5.29a2.53,2.53,0,0,0,2.3,1.4C129.57,181.68,130.56,180.37,130.77,177.73Z"/><path d="M148.71,187.21a9.46,9.46,0,0,1-7.48-3.34c-1.93-2.23-2.89-5.2-2.89-8.93a13.81,13.81,0,0,1,2.76-8.84,9.25,9.25,0,0,1,7.67-3.49,9.36,9.36,0,0,1,7.4,3.29,12.93,12.93,0,0,1,2.86,8.77,13.69,13.69,0,0,1-2.89,9.11A9.28,9.28,0,0,1,148.71,187.21Zm0-5.42a2.5,2.5,0,0,0,2.42-1.62c.5-1.08.74-3,.74-5.92,0-4.14-1-6.22-3-6.22q-3.28,0-3.28,7.1Q145.52,181.79,148.68,181.79Z"/><path d="M180.43,186.84H175l-5.95-10.54a41.42,41.42,0,0,1-2.32-4.93,18.18,18.18,0,0,1,.53,3.92v11.55h-5.42V163h6.31l5.07,8.74a36,36,0,0,1,2.29,4.58A38,38,0,0,1,175,170V163h5.43Z"/><path d="M193.15,168.7v18.14h-6.32V168.7h-4.5V163h15.33v5.72Z"/><path d="M218.91,186.84h-7.4l-3.18-9.12h-2.1v9.12h-6.67V163h11.35a8.25,8.25,0,0,1,5.84,1.93,6.66,6.66,0,0,1,2.08,5.1,8.26,8.26,0,0,1-.77,3.64,6.59,6.59,0,0,1-3.09,2.79Zm-12.68-14.23h2.85a3.23,3.23,0,0,0,2-.58,2,2,0,0,0,.77-1.69c0-1.53-.86-2.29-2.57-2.29h-3.07Z"/><path d="M234.05,186.84l-1.23-4.7H227l-1.3,4.7h-5.42L227,163H234l6.82,23.86Zm-5.92-9.91h3.52L229.89,170Z"/><path d="M254.17,177.73l6.09.4a10.12,10.12,0,0,1-2.95,6.73,8.74,8.74,0,0,1-6.2,2.35A8.92,8.92,0,0,1,244,184q-2.73-3.21-2.73-8.88a14.7,14.7,0,0,1,2.58-9.05,8.48,8.48,0,0,1,7.2-3.45,8.36,8.36,0,0,1,6.63,2.63,11.29,11.29,0,0,1,2.62,6.95l-6.22.37a5.62,5.62,0,0,0-.84-3.46,2.46,2.46,0,0,0-2-1.07q-3.15,0-3.15,7,0,3.9.82,5.29a2.54,2.54,0,0,0,2.3,1.4C253,181.68,254,180.37,254.17,177.73Z"/><path d="M271.64,168.7v18.14h-6.33V168.7h-4.5V163h15.33v5.72Z"/><path d="M287.43,187.21a9.44,9.44,0,0,1-7.47-3.34c-1.93-2.23-2.89-5.2-2.89-8.93a13.81,13.81,0,0,1,2.76-8.84,10.06,10.06,0,0,1,15.06-.2,12.88,12.88,0,0,1,2.86,8.77q0,5.69-2.88,9.11A9.29,9.29,0,0,1,287.43,187.21Zm0-5.42a2.5,2.5,0,0,0,2.43-1.62,16.12,16.12,0,0,0,.74-5.92c0-4.14-1-6.22-3-6.22q-3.28,0-3.28,7.1Q284.25,181.79,287.4,181.79Z"/><path d="M319.92,186.84h-7.4l-3.17-9.12h-2.1v9.12h-6.68V163h11.36a8.22,8.22,0,0,1,5.83,1.93,6.63,6.63,0,0,1,2.08,5.1,8.25,8.25,0,0,1-.76,3.64,6.59,6.59,0,0,1-3.09,2.79Zm-12.67-14.23h2.85a3.25,3.25,0,0,0,2-.58,2,2,0,0,0,.76-1.69c0-1.53-.85-2.29-2.56-2.29h-3.07Z"/><path d="M346.47,181v5.86H331.23V163h6.67v18Z"/><path d="M364,181v5.86H348.8V163h6.67v18Z"/><path d="M378.1,177.73l6.1.4a10.13,10.13,0,0,1-3,6.73,8.74,8.74,0,0,1-6.2,2.35,8.94,8.94,0,0,1-7.15-3.22c-1.82-2.14-2.72-5.1-2.72-8.88a14.7,14.7,0,0,1,2.58-9.05,9.43,9.43,0,0,1,13.83-.82,11.35,11.35,0,0,1,2.62,6.95l-6.23.37a5.62,5.62,0,0,0-.84-3.46,2.44,2.44,0,0,0-2-1.07q-3.17,0-3.16,7c0,2.6.28,4.36.82,5.29a2.55,2.55,0,0,0,2.31,1.4C376.9,181.68,377.89,180.37,378.1,177.73Z"/><path class="cls-1" d="M11,186.84V163H22q3.45,0,5,1.91a6.64,6.64,0,0,1,1.58,4.35,5.87,5.87,0,0,1-.92,3.22,4.69,4.69,0,0,1-2.73,2A5.2,5.2,0,0,1,29.17,180a8,8,0,0,1-1.49,4.75q-1.48,2.08-6.36,2.09Zm6.14-14.72H20.2a1.89,1.89,0,0,0,1.64-.64,2.32,2.32,0,0,0,.48-1.39c0-1.32-.74-2-2.23-2h-3Zm0,9.41h3.25a2.1,2.1,0,0,0,2.34-2.14,2.36,2.36,0,0,0-.55-1.51,2.43,2.43,0,0,0-2-.69h-3Z"/><path class="cls-1" d="M43.91,186.84l-1.23-4.7H36.86l-1.31,4.7H30.14L36.85,163h7l6.82,23.86ZM38,176.93h3.52L39.75,170Z"/><path class="cls-1" d="M50.48,179.94l6.19-1.23a3.72,3.72,0,0,0,4,2.89c1.67,0,2.51-.49,2.51-1.47a1.4,1.4,0,0,0-.58-1.2,5.79,5.79,0,0,0-2.08-.76Q54.83,177,53.2,175a6.93,6.93,0,0,1-1.62-4.57,7.42,7.42,0,0,1,2.33-5.61c1.56-1.49,3.79-2.24,6.71-2.24q6.65,0,8.78,5.86l-5.53,1.83a3.38,3.38,0,0,0-3.49-2.39c-1.45,0-2.18.49-2.18,1.49a1.22,1.22,0,0,0,.5,1,5.68,5.68,0,0,0,1.91.69,37.27,37.27,0,0,1,5.54,1.61,6.11,6.11,0,0,1,2.74,2.38,7.16,7.16,0,0,1,1.1,4A7.32,7.32,0,0,1,67.31,185a10.53,10.53,0,0,1-7,2.25Q52.34,187.21,50.48,179.94Z"/><path class="cls-1" d="M81.72,168.7v18.14H75.4V168.7H70.89V163H86.23v5.72Z"/><path class="cls-1" d="M97.52,187.21a9.42,9.42,0,0,1-7.47-3.34,13.16,13.16,0,0,1-2.9-8.93,13.82,13.82,0,0,1,2.77-8.84,10.06,10.06,0,0,1,15.06-.2,12.88,12.88,0,0,1,2.86,8.77q0,5.69-2.88,9.11A9.29,9.29,0,0,1,97.52,187.21Zm0-5.42a2.5,2.5,0,0,0,2.43-1.62,16.12,16.12,0,0,0,.74-5.92c0-4.14-1-6.22-3-6.22q-3.28,0-3.28,7.1Q94.34,181.79,97.49,181.79Z"/><path class="cls-1" d="M130.77,177.73l6.1.4a10.12,10.12,0,0,1-3,6.73,8.74,8.74,0,0,1-6.2,2.35,8.91,8.91,0,0,1-7.15-3.22q-2.73-3.21-2.73-8.88a14.7,14.7,0,0,1,2.58-9.05,8.48,8.48,0,0,1,7.2-3.45,8.36,8.36,0,0,1,6.63,2.63,11.29,11.29,0,0,1,2.62,6.95l-6.22.37a5.62,5.62,0,0,0-.84-3.46,2.46,2.46,0,0,0-2-1.07q-3.15,0-3.15,7,0,3.9.82,5.29a2.53,2.53,0,0,0,2.3,1.4C129.57,181.68,130.56,180.37,130.77,177.73Z"/><path class="cls-1" d="M148.71,187.21a9.46,9.46,0,0,1-7.48-3.34c-1.93-2.23-2.89-5.2-2.89-8.93a13.81,13.81,0,0,1,2.76-8.84,9.25,9.25,0,0,1,7.67-3.49,9.36,9.36,0,0,1,7.4,3.29,12.93,12.93,0,0,1,2.86,8.77,13.69,13.69,0,0,1-2.89,9.11A9.28,9.28,0,0,1,148.71,187.21Zm0-5.42a2.5,2.5,0,0,0,2.42-1.62c.5-1.08.74-3,.74-5.92,0-4.14-1-6.22-3-6.22q-3.28,0-3.28,7.1Q145.52,181.79,148.68,181.79Z"/><path class="cls-1" d="M180.43,186.84H175l-5.95-10.54a41.42,41.42,0,0,1-2.32-4.93,18.18,18.18,0,0,1,.53,3.92v11.55h-5.42V163h6.31l5.07,8.74a36,36,0,0,1,2.29,4.58A38,38,0,0,1,175,170V163h5.43Z"/><path class="cls-1" d="M193.15,168.7v18.14h-6.32V168.7h-4.5V163h15.33v5.72Z"/><path class="cls-1" d="M218.91,186.84h-7.4l-3.18-9.12h-2.1v9.12h-6.67V163h11.35a8.25,8.25,0,0,1,5.84,1.93,6.66,6.66,0,0,1,2.08,5.1,8.26,8.26,0,0,1-.77,3.64,6.59,6.59,0,0,1-3.09,2.79Zm-12.68-14.23h2.85a3.23,3.23,0,0,0,2-.58,2,2,0,0,0,.77-1.69c0-1.53-.86-2.29-2.57-2.29h-3.07Z"/><path class="cls-1" d="M234.05,186.84l-1.23-4.7H227l-1.3,4.7h-5.42L227,163H234l6.82,23.86Zm-5.92-9.91h3.52L229.89,170Z"/><path class="cls-1" d="M254.17,177.73l6.09.4a10.12,10.12,0,0,1-2.95,6.73,8.74,8.74,0,0,1-6.2,2.35A8.92,8.92,0,0,1,244,184q-2.73-3.21-2.73-8.88a14.7,14.7,0,0,1,2.58-9.05,8.48,8.48,0,0,1,7.2-3.45,8.36,8.36,0,0,1,6.63,2.63,11.29,11.29,0,0,1,2.62,6.95l-6.22.37a5.62,5.62,0,0,0-.84-3.46,2.46,2.46,0,0,0-2-1.07q-3.15,0-3.15,7,0,3.9.82,5.29a2.54,2.54,0,0,0,2.3,1.4C253,181.68,254,180.37,254.17,177.73Z"/><path class="cls-1" d="M271.64,168.7v18.14h-6.33V168.7h-4.5V163h15.33v5.72Z"/><path class="cls-1" d="M287.43,187.21a9.44,9.44,0,0,1-7.47-3.34c-1.93-2.23-2.89-5.2-2.89-8.93a13.81,13.81,0,0,1,2.76-8.84,10.06,10.06,0,0,1,15.06-.2,12.88,12.88,0,0,1,2.86,8.77q0,5.69-2.88,9.11A9.29,9.29,0,0,1,287.43,187.21Zm0-5.42a2.5,2.5,0,0,0,2.43-1.62,16.12,16.12,0,0,0,.74-5.92c0-4.14-1-6.22-3-6.22q-3.28,0-3.28,7.1Q284.25,181.79,287.4,181.79Z"/><path class="cls-1" d="M319.92,186.84h-7.4l-3.17-9.12h-2.1v9.12h-6.68V163h11.36a8.22,8.22,0,0,1,5.83,1.93,6.63,6.63,0,0,1,2.08,5.1,8.25,8.25,0,0,1-.76,3.64,6.59,6.59,0,0,1-3.09,2.79Zm-12.67-14.23h2.85a3.25,3.25,0,0,0,2-.58,2,2,0,0,0,.76-1.69c0-1.53-.85-2.29-2.56-2.29h-3.07Z"/><path class="cls-1" d="M346.47,181v5.86H331.23V163h6.67v18Z"/><path class="cls-1" d="M364,181v5.86H348.8V163h6.67v18Z"/><path class="cls-1" d="M378.1,177.73l6.1.4a10.13,10.13,0,0,1-3,6.73,8.74,8.74,0,0,1-6.2,2.35,8.94,8.94,0,0,1-7.15-3.22c-1.82-2.14-2.72-5.1-2.72-8.88a14.7,14.7,0,0,1,2.58-9.05,9.43,9.43,0,0,1,13.83-.82,11.35,11.35,0,0,1,2.62,6.95l-6.23.37a5.62,5.62,0,0,0-.84-3.46,2.44,2.44,0,0,0-2-1.07q-3.17,0-3.16,7c0,2.6.28,4.36.82,5.29a2.55,2.55,0,0,0,2.31,1.4C376.9,181.68,377.89,180.37,378.1,177.73Z"/><g id="techo"><polygon class="cls-2" points="283.4 0 204.17 24.34 164.14 65.79 164.23 65.82 182.37 84.6 203.55 84.36 283.4 0"/><polygon class="cls-2" points="99.71 46.9 161.29 65.82 200.27 106.19 237.02 68.13 295.61 50.13 240.29 107.31 240.29 112.51 157.04 112.51 157.04 107.31 99.71 46.9"/></g><g id="house"><polygon class="cls-3" points="329.93 26.06 328.75 26.53 320.63 29.7 320.63 34.12 329.43 43.34 329.93 43.86 329.93 26.06"/><polygon class="cls-3" points="342.42 29.71 329.93 26.06 329.93 43.86 342.42 56.95 342.42 29.71"/><polygon class="cls-3" points="288.13 4.04 281.74 10.84 341.6 73.15 341.6 86.31 366.7 86.31 288.13 4.04"/><polygon class="cls-3" points="68.48 67.15 69.4 67.52 75.72 69.98 75.72 73.41 68.87 80.58 68.48 80.99 68.48 67.15"/><polygon class="cls-3" points="58.77 69.98 68.48 67.16 68.48 80.99 58.77 91.16 58.77 69.98"/><polygon class="cls-3" points="100.76 50.38 105.75 55.61 59.41 103.75 61.45 130.58 0.03 141.03 58.32 127.17 53.8 111.83 41.81 111.83 100.76 50.38"/><polygon class="cls-3" points="300.15 53.41 295.28 58.41 339.37 104.22 337.33 130.58 394.11 142.64 340.25 127.51 344.34 113.95 357.93 113.95 300.15 53.41"/><path class="cls-1" d="M.05,148.29H0c35.57-6.75,71.34-12,107.4-15.25,29.92-2.73,59.91-3.59,89.94-4.3,51.54-1.22,103.79,2,154.48,11.65,14.2,2.7,28.31,5.94,42.32,9.55C350,139.74,305.5,136.42,260.24,134.5c-21-.89-41.9-1-62.87-1-30,.53-59.88,1.62-89.77,3.67C71.54,139.88,35.75,142.48.05,148.29Z"/><g id="windows"><rect class="cls-1" x="95.25" y="89.49" width="7.7" height="7.71"/><rect class="cls-1" x="105.59" y="89.49" width="7.71" height="7.71"/><rect class="cls-1" x="95.25" y="99.75" width="7.7" height="7.7"/><rect class="cls-1" x="105.59" y="99.75" width="7.71" height="7.7"/><rect class="cls-1" x="291.56" y="90.66" width="7.32" height="7.33"/><rect class="cls-1" x="281.67" y="90.66" width="7.33" height="7.33"/><rect class="cls-1" x="291.56" y="100.46" width="7.32" height="7.33"/><rect class="cls-1" x="281.67" y="100.46" width="7.33" height="7.33"/><polygon class="cls-3" points="309.19 78.28 309.19 82.01 325.31 98.13 325.31 95.16 309.19 78.28"/></g></g><g id="BASTO_CONTRACTOR" data-name="BASTO CONTRACTOR"><path class="cls-4" d="M135.44,196.09a20.5,20.5,0,0,1,3.84-.33c2.14,0,3.52.4,4.49,1.27A3.86,3.86,0,0,1,145,200a4.06,4.06,0,0,1-2.92,4V204c1.2.41,1.91,1.51,2.28,3.12a24.11,24.11,0,0,0,1.2,4.26h-2.07a19.67,19.67,0,0,1-1-3.7c-.46-2.14-1.29-3-3.1-3h-1.89v6.72h-2Zm2,7.06h2.05c2.14,0,3.49-1.18,3.49-3,0-2-1.45-2.87-3.56-2.89a8.39,8.39,0,0,0-2,.18Z"/><path class="cls-4" d="M149,206.18a3.55,3.55,0,0,0,3.81,3.86,7.35,7.35,0,0,0,3.08-.57l.35,1.45a9,9,0,0,1-3.7.69c-3.43,0-5.48-2.26-5.48-5.61s2-6,5.22-6c3.64,0,4.6,3.19,4.6,5.24a6.46,6.46,0,0,1-.07.94Zm5.93-1.45c0-1.29-.53-3.29-2.81-3.29-2,0-2.94,1.89-3.1,3.29Z"/><path class="cls-4" d="M159.08,209.31a5.33,5.33,0,0,0,2.67.8c1.47,0,2.16-.73,2.16-1.65s-.57-1.5-2.07-2.05c-2-.71-2.94-1.82-2.94-3.15,0-1.79,1.45-3.26,3.84-3.26a5.54,5.54,0,0,1,2.74.69l-.51,1.47a4.3,4.3,0,0,0-2.28-.65c-1.19,0-1.86.69-1.86,1.52s.67,1.33,2.12,1.89c1.93.73,2.92,1.7,2.92,3.35,0,2-1.52,3.34-4.16,3.34a6.35,6.35,0,0,1-3.13-.76Z"/><path class="cls-4" d="M170.72,197.12a1.25,1.25,0,0,1-2.5,0,1.22,1.22,0,0,1,1.26-1.26A1.2,1.2,0,0,1,170.72,197.12Zm-2.25,14.26V200.25h2v11.13Z"/><path class="cls-4" d="M183.46,195.05V208.5c0,1,0,2.12.09,2.88h-1.81l-.09-1.93h-.05a4.12,4.12,0,0,1-3.79,2.18c-2.69,0-4.76-2.28-4.76-5.66,0-3.7,2.27-6,5-6a3.7,3.7,0,0,1,3.35,1.7h.05v-6.65Zm-2,9.73a3.51,3.51,0,0,0-.09-.85,3,3,0,0,0-2.92-2.35c-2.1,0-3.34,1.84-3.34,4.3,0,2.26,1.11,4.12,3.29,4.12a3,3,0,0,0,3-2.42,3.42,3.42,0,0,0,.09-.87Z"/><path class="cls-4" d="M188,206.18a3.56,3.56,0,0,0,3.82,3.86,7.35,7.35,0,0,0,3.08-.57l.34,1.45a9,9,0,0,1-3.7.69c-3.43,0-5.47-2.26-5.47-5.61s2-6,5.22-6c3.63,0,4.6,3.19,4.6,5.24a8.31,8.31,0,0,1-.07.94Zm5.93-1.45c0-1.29-.53-3.29-2.8-3.29-2.05,0-3,1.89-3.11,3.29Z"/><path class="cls-4" d="M198.34,203.26c0-1.15,0-2.09-.09-3h1.8l.11,1.84h.05a4.09,4.09,0,0,1,3.68-2.09c1.54,0,3.93.92,3.93,4.73v6.65h-2V205c0-1.79-.67-3.29-2.58-3.29a2.88,2.88,0,0,0-2.71,2.07,2.75,2.75,0,0,0-.14.95v6.69h-2Z"/><path class="cls-4" d="M213.46,197.05v3.2h2.89v1.54h-2.89v6c0,1.38.39,2.16,1.51,2.16a4.54,4.54,0,0,0,1.18-.14l.09,1.52a5,5,0,0,1-1.8.28,2.8,2.8,0,0,1-2.18-.85,4.11,4.11,0,0,1-.78-2.9v-6.07h-1.73v-1.54h1.73v-2.67Z"/><path class="cls-4" d="M220.89,197.12a1.26,1.26,0,0,1-2.51,0,1.23,1.23,0,0,1,1.26-1.26A1.2,1.2,0,0,1,220.89,197.12Zm-2.26,14.26V200.25h2v11.13Z"/><path class="cls-4" d="M230.18,211.38,230,210H230a4.17,4.17,0,0,1-3.41,1.65,3.17,3.17,0,0,1-3.4-3.2c0-2.69,2.39-4.16,6.69-4.13v-.23a2.3,2.3,0,0,0-2.53-2.58,5.55,5.55,0,0,0-2.9.83l-.46-1.34a7,7,0,0,1,3.66-1c3.4,0,4.23,2.32,4.23,4.55v4.16a16.57,16.57,0,0,0,.18,2.67Zm-.3-5.68c-2.21,0-4.72.34-4.72,2.5a1.8,1.8,0,0,0,1.91,1.94,2.76,2.76,0,0,0,2.69-1.87,2,2,0,0,0,.12-.64Z"/><path class="cls-4" d="M235.1,195.05h2v16.33h-2Z"/><path class="cls-4" d="M255.18,211.38c-.44-.44-.86-.88-1.45-1.52a6.37,6.37,0,0,1-4.53,1.77c-3,0-4.76-2-4.76-4.35a5.1,5.1,0,0,1,3-4.53v-.06a5.38,5.38,0,0,1-1.29-3.25,3.76,3.76,0,0,1,3.94-3.81,3.21,3.21,0,0,1,3.42,3.28c0,1.64-.94,2.92-3.4,4.14v.07c1.31,1.52,2.78,3.22,3.77,4.33a11.44,11.44,0,0,0,1.5-4.53h1.84a11.87,11.87,0,0,1-2.24,5.72l2.56,2.74Zm-2.44-2.67c-.92-1-2.65-2.9-4.37-4.87a3.78,3.78,0,0,0-2,3.15,3.05,3.05,0,0,0,3.17,3.12A4.31,4.31,0,0,0,252.74,208.71ZM248,199.26A4.34,4.34,0,0,0,249.2,202c1.56-.89,2.57-1.72,2.57-3a1.82,1.82,0,0,0-1.79-2A2,2,0,0,0,248,199.26Z"/><path class="cls-4" d="M275.09,210.87a9.83,9.83,0,0,1-4.09.74c-4.37,0-7.66-2.76-7.66-7.84a7.71,7.71,0,0,1,8.1-8.14,8.26,8.26,0,0,1,3.68.69l-.49,1.63a7.25,7.25,0,0,0-3.12-.64c-3.64,0-6.05,2.32-6.05,6.39,0,3.79,2.18,6.23,6,6.23a8.06,8.06,0,0,0,3.27-.64Z"/><path class="cls-4" d="M287.35,205.72c0,4.12-2.85,5.91-5.54,5.91-3,0-5.33-2.21-5.33-5.72,0-3.73,2.43-5.91,5.51-5.91S287.35,202.32,287.35,205.72Zm-8.83.12c0,2.43,1.41,4.27,3.38,4.27s3.38-1.81,3.38-4.32c0-1.89-.94-4.28-3.33-4.28S278.52,203.72,278.52,205.84Z"/><path class="cls-4" d="M289.91,203.26c0-1.15,0-2.09-.09-3h1.77l.09,1.79h.07a3.82,3.82,0,0,1,3.49-2,3.29,3.29,0,0,1,3.15,2.23h.05a4.38,4.38,0,0,1,1.24-1.45,3.77,3.77,0,0,1,2.46-.78c1.47,0,3.66,1,3.66,4.82v6.56h-2v-6.3c0-2.14-.78-3.43-2.42-3.43a2.63,2.63,0,0,0-2.39,1.84,3.39,3.39,0,0,0-.16,1v6.88h-2v-6.67c0-1.77-.79-3.06-2.33-3.06a2.76,2.76,0,0,0-2.5,2,2.71,2.71,0,0,0-.16,1v6.72h-2Z"/><path class="cls-4" d="M309.09,203.26c0-1.15,0-2.09-.09-3h1.77l.09,1.79h.07a3.82,3.82,0,0,1,3.49-2,3.29,3.29,0,0,1,3.15,2.23h.05a4.5,4.5,0,0,1,1.24-1.45,3.77,3.77,0,0,1,2.46-.78c1.47,0,3.66,1,3.66,4.82v6.56h-2v-6.3c0-2.14-.78-3.43-2.41-3.43a2.63,2.63,0,0,0-2.4,1.84,3.39,3.39,0,0,0-.16,1v6.88h-2v-6.67c0-1.77-.79-3.06-2.33-3.06a2.76,2.76,0,0,0-2.5,2,2.71,2.71,0,0,0-.16,1v6.72h-2Z"/><path class="cls-4" d="M329.4,206.18a3.56,3.56,0,0,0,3.82,3.86,7.39,7.39,0,0,0,3.08-.57l.34,1.45a9,9,0,0,1-3.7.69c-3.43,0-5.47-2.26-5.47-5.61s2-6,5.22-6c3.63,0,4.59,3.19,4.59,5.24a8.82,8.82,0,0,1-.06.94Zm5.93-1.45c0-1.29-.53-3.29-2.81-3.29-2,0-2.94,1.89-3.1,3.29Z"/><path class="cls-4" d="M339.79,203.72c0-1.31,0-2.44-.09-3.47h1.77l.07,2.18h.09a3.35,3.35,0,0,1,3.09-2.43,2.49,2.49,0,0,1,.57.06V202a3.41,3.41,0,0,0-.69-.07,2.83,2.83,0,0,0-2.71,2.6,5.38,5.38,0,0,0-.09.95v5.93h-2Z"/><path class="cls-4" d="M355,211a7.38,7.38,0,0,1-3.2.65,5.29,5.29,0,0,1-5.54-5.68,5.66,5.66,0,0,1,6-5.91,6.86,6.86,0,0,1,2.8.57l-.46,1.57a4.63,4.63,0,0,0-2.34-.53c-2.55,0-3.93,1.88-3.93,4.21a3.81,3.81,0,0,0,3.86,4.16,5.76,5.76,0,0,0,2.48-.55Z"/><path class="cls-4" d="M359.64,197.12a1.25,1.25,0,0,1-2.5,0,1.22,1.22,0,0,1,1.26-1.26A1.2,1.2,0,0,1,359.64,197.12Zm-2.25,14.26V200.25h2v11.13Z"/><path class="cls-4" d="M368.93,211.38l-.16-1.4h-.07a4.14,4.14,0,0,1-3.4,1.65,3.17,3.17,0,0,1-3.4-3.2c0-2.69,2.39-4.16,6.69-4.13v-.23a2.3,2.3,0,0,0-2.53-2.58,5.5,5.5,0,0,0-2.9.83L362.7,201a7,7,0,0,1,3.66-1c3.4,0,4.23,2.32,4.23,4.55v4.16a16.57,16.57,0,0,0,.18,2.67Zm-.3-5.68c-2.2,0-4.71.34-4.71,2.5a1.79,1.79,0,0,0,1.91,1.94,2.76,2.76,0,0,0,2.69-1.87,2,2,0,0,0,.11-.64Z"/><path class="cls-4" d="M373.86,195.05h2v16.33h-2Z"/></g><g id="LINE"><line class="cls-5" x1="124.74" y1="210.31" x2="12.74" y2="210.31"/><line class="cls-6" x1="124.74" y1="205.31" x2="12.74" y2="205.31"/><line class="cls-7" x1="124.74" y1="199.31" x2="12.74" y2="199.31"/></g></g></g></g></svg>