<svg width="24" height="24" viewBox="0 0 24 24" fill="none" xmlns="http://www.w3.org/2000/svg">
<g clip-path="url(#clip0_2_1170)">
<path d="M9.5447 5.96559C8.88143 5.99689 8.42848 6.10274 8.03251 6.25833C7.6227 6.41804 7.27536 6.63236 6.92976 6.97921C6.58416 7.32605 6.37134 7.67365 6.21275 8.08408C6.05928 8.48092 5.9553 8.93424 5.926 9.59789C5.8967 10.2615 5.89022 10.4749 5.89346 12.1677C5.8967 13.8605 5.90418 14.0727 5.93635 14.7378C5.96801 15.4009 6.07349 15.8537 6.22908 16.2498C6.38904 16.6596 6.60311 17.0068 6.95008 17.3526C7.29705 17.6983 7.6444 17.9106 8.05583 18.0695C8.45229 18.2227 8.90574 18.3272 9.56926 18.3562C10.2328 18.3853 10.4464 18.392 12.1387 18.3887C13.831 18.3855 14.0441 18.378 14.709 18.3465C15.3739 18.3149 15.8243 18.2087 16.2206 18.0539C16.6304 17.8935 16.9778 17.6798 17.3233 17.3327C17.6688 16.9856 17.8815 16.6378 18.04 16.2271C18.1936 15.8307 18.2979 15.3772 18.3267 14.7142C18.3558 14.0488 18.3626 13.8363 18.3594 12.1438C18.3561 10.4512 18.3485 10.239 18.317 9.5742C18.2854 8.90943 18.1798 8.45798 18.0244 8.06164C17.8642 7.65183 17.6503 7.30486 17.3035 6.95888C16.9566 6.61291 16.6086 6.40034 16.198 6.24225C15.8013 6.08877 15.3481 5.98417 14.6846 5.9555C14.021 5.92682 13.8075 5.91946 12.1145 5.92271C10.4215 5.92595 10.2096 5.93318 9.5447 5.96559ZM9.61751 17.2347C9.00972 17.2083 8.6797 17.1073 8.45977 17.0228C8.16853 16.9106 7.96107 16.7749 7.74189 16.5579C7.52272 16.3408 7.38807 16.1326 7.27436 15.842C7.18896 15.6221 7.0861 15.2924 7.05768 14.6846C7.02676 14.0277 7.02027 13.8305 7.01666 12.1662C7.01304 10.5019 7.0194 10.3049 7.0482 9.64776C7.07413 9.04046 7.17574 8.71007 7.26015 8.49027C7.37236 8.19865 7.5075 7.99157 7.72506 7.77251C7.94262 7.55346 8.15021 7.41856 8.44107 7.30486C8.66075 7.21908 8.99039 7.1171 9.59794 7.08817C10.2553 7.057 10.4523 7.05077 12.1164 7.04715C13.7804 7.04354 13.9779 7.04977 14.6356 7.0787C15.2429 7.10513 15.5734 7.20574 15.7929 7.29064C16.0843 7.40285 16.2916 7.53763 16.5107 7.75556C16.7297 7.97349 16.8648 8.18033 16.9785 8.47182C17.0644 8.69087 17.1664 9.02039 17.195 9.62831C17.2263 10.2857 17.2334 10.4828 17.2364 12.1467C17.2394 13.8107 17.2336 14.0083 17.2048 14.6652C17.1782 15.273 17.0775 15.6031 16.9928 15.8233C16.8806 16.1144 16.7453 16.322 16.5276 16.5409C16.31 16.7599 16.1026 16.8948 15.8116 17.0085C15.5922 17.0941 15.2622 17.1963 14.6551 17.2253C13.9977 17.2562 13.8007 17.2627 12.1361 17.2663C10.4714 17.2699 10.275 17.2632 9.61763 17.2347M14.6994 8.82403C14.6996 8.97199 14.7438 9.11655 14.8262 9.23944C14.9086 9.36232 15.0256 9.458 15.1624 9.51439C15.2992 9.57077 15.4496 9.58532 15.5947 9.55619C15.7398 9.52707 15.8729 9.45558 15.9774 9.35076C16.0818 9.24594 16.1528 9.11251 16.1814 8.96734C16.21 8.82217 16.1949 8.67178 16.138 8.53519C16.0811 8.3986 15.985 8.28194 15.8618 8.19998C15.7386 8.11802 15.5939 8.07443 15.446 8.07473C15.2476 8.07512 15.0575 8.15428 14.9175 8.2948C14.7775 8.43531 14.6991 8.62567 14.6994 8.82403ZM8.92569 12.162C8.92918 13.9299 10.3649 15.3598 12.1325 15.3564C13.9 15.353 15.3309 13.9174 15.3275 12.1495C15.3241 10.3816 13.888 8.95132 12.1202 8.95481C10.3525 8.9583 8.92232 10.3943 8.92569 12.162ZM10.0485 12.1597C10.0477 11.7487 10.1688 11.3467 10.3964 11.0046C10.6241 10.6624 10.9481 10.3954 11.3275 10.2374C11.7069 10.0794 12.1246 10.0374 12.5278 10.1168C12.9311 10.1962 13.3017 10.3933 13.5929 10.6834C13.8841 10.9734 14.0827 11.3433 14.1637 11.7462C14.2447 12.1491 14.2044 12.567 14.0478 12.947C13.8913 13.327 13.6256 13.6521 13.2843 13.8811C12.9431 14.1101 12.5416 14.2327 12.1306 14.2336C11.8577 14.2341 11.5874 14.1809 11.335 14.077C11.0827 13.9731 10.8533 13.8205 10.66 13.6279C10.4666 13.4353 10.3131 13.2066 10.2082 12.9546C10.1033 12.7027 10.049 12.4326 10.0485 12.1597Z" fill="#111D15"/>
</g>
<defs>
<clipPath id="clip0_2_1170">
<rect width="12.4675" height="12.4675" fill="white" transform="translate(5.8927 5.922)"/>
</clipPath>
</defs>
</svg>
