<svg width="24" height="24" viewBox="0 0 24 24" fill="none" xmlns="http://www.w3.org/2000/svg">
<path fill-rule="evenodd" clip-rule="evenodd" d="M12.8911 9.33694V10.7474C13.1865 10.2975 13.5936 9.93197 14.0727 9.68662C14.5517 9.44126 15.0863 9.3245 15.624 9.34774C18.4957 9.34774 19.1165 11.1431 19.1165 13.4787V18.2338H16.4568V14.0181C16.4568 13.0124 16.254 11.7191 14.6881 11.7191C13.1695 11.7191 12.9102 12.8137 12.9102 13.9433V18.2338H10.2588V9.33694H12.8911ZM8.47759 7.10109C8.47726 7.36458 8.39916 7.6221 8.25307 7.84138C8.10698 8.06065 7.89942 8.23192 7.65639 8.33372C7.41346 8.43469 7.14599 8.4611 6.888 8.40959C6.63002 8.35808 6.39319 8.23098 6.20766 8.04447C6.02179 7.85784 5.89524 7.62041 5.84394 7.36205C5.79264 7.10369 5.81887 6.83593 5.91934 6.59244C6.01981 6.34895 6.19003 6.1406 6.4086 5.99359C6.62716 5.84659 6.88431 5.76748 7.14772 5.76624C7.32278 5.76623 7.49612 5.8008 7.65779 5.86794C7.81946 5.93508 7.96629 6.03349 8.08984 6.15751C8.2134 6.28153 8.31125 6.42872 8.37779 6.59064C8.44433 6.75256 8.47824 6.92603 8.47759 7.10109Z" fill="#111D15"/>
<path d="M8.4781 9.3479H5.81836V18.2339H8.4781V9.3479Z" fill="#111D15"/>
</svg>
