<svg xmlns="http://www.w3.org/2000/svg" xmlns:xlink="http://www.w3.org/1999/xlink" viewBox="0 0 354.67 308.98"><defs><style>.cls-1,.cls-6{font-size:29.84px;}.cls-1,.cls-5{fill:#21244d;}.cls-1,.cls-3,.cls-6{font-family:Impact;}.cls-2{letter-spacing:-0.02em;}.cls-3{font-size:93.6px;}.cls-27,.cls-3{fill:#232f5d;}.cls-4{fill:url(#linear-gradient);}.cls-6{fill:#008540;}.cls-7{fill:url(#radial-gradient);}.cls-8{fill:url(#radial-gradient-2);}.cls-9{fill:url(#radial-gradient-3);}.cls-10{fill:url(#radial-gradient-4);}.cls-11{fill:url(#radial-gradient-5);}.cls-12{fill:url(#radial-gradient-6);}.cls-13{fill:url(#radial-gradient-7);}.cls-14{fill:url(#radial-gradient-8);}.cls-15{fill:url(#radial-gradient-9);}.cls-16{fill:url(#radial-gradient-10);}.cls-17{fill:url(#radial-gradient-11);}.cls-18{fill:url(#radial-gradient-12);}.cls-19{fill:url(#radial-gradient-13);}.cls-20{fill:url(#radial-gradient-14);}.cls-21{fill:url(#radial-gradient-15);}.cls-22{fill:url(#radial-gradient-16);}.cls-23{fill:url(#radial-gradient-17);}.cls-24{fill:url(#linear-gradient-8);}.cls-25{fill:url(#linear-gradient-9);}.cls-26{fill:url(#linear-gradient-10);}.cls-28{fill:#252c5f;}</style><linearGradient id="linear-gradient" x1="196.93" y1="189.45" x2="196.93" y2="266.55" gradientUnits="userSpaceOnUse"><stop offset="0" stop-color="#0075bf"/><stop offset="0.17" stop-color="#0172bb"/><stop offset="0.36" stop-color="#0569ae"/><stop offset="0.56" stop-color="#0b5998"/><stop offset="0.76" stop-color="#144479"/><stop offset="0.97" stop-color="#1f2853"/><stop offset="0.99" stop-color="#21244d"/></linearGradient><radialGradient id="radial-gradient" cx="44.19" cy="164" r="20.1" gradientUnits="userSpaceOnUse"><stop offset="0" stop-color="#fde047"/><stop offset="1" stop-color="#eab30b"/></radialGradient><radialGradient id="radial-gradient-2" cx="33.59" cy="142.44" r="24.25" xlink:href="#radial-gradient"/><radialGradient id="radial-gradient-3" cx="38.22" cy="119.81" r="22.11" xlink:href="#radial-gradient"/><radialGradient id="radial-gradient-4" cx="38.15" cy="105.61" r="23.48" xlink:href="#radial-gradient"/><radialGradient id="radial-gradient-5" cx="42.01" cy="83.93" r="27.13" xlink:href="#radial-gradient"/><radialGradient id="radial-gradient-6" cx="55.65" cy="77" r="21.73" xlink:href="#radial-gradient"/><radialGradient id="radial-gradient-7" cx="65.77" cy="57.6" r="26.77" xlink:href="#radial-gradient"/><radialGradient id="radial-gradient-8" cx="78.97" cy="53.72" r="22.68" xlink:href="#radial-gradient"/><radialGradient id="radial-gradient-9" cx="101.49" cy="40.64" r="26.83" xlink:href="#radial-gradient"/><radialGradient id="radial-gradient-10" cx="116.15" cy="43" r="22.82" xlink:href="#radial-gradient"/><radialGradient id="radial-gradient-11" cx="138.41" cy="36.48" r="27.55" xlink:href="#radial-gradient"/><radialGradient id="radial-gradient-12" cx="150.11" cy="42.69" r="23.72" xlink:href="#radial-gradient"/><radialGradient id="radial-gradient-13" cx="171.79" cy="45.51" r="27.4" xlink:href="#radial-gradient"/><radialGradient id="radial-gradient-14" cx="179.55" cy="56.38" r="22.97" xlink:href="#radial-gradient"/><radialGradient id="radial-gradient-15" cx="198.72" cy="65.71" r="27.26" xlink:href="#radial-gradient"/><radialGradient id="radial-gradient-16" cx="201.44" cy="80.76" r="22.01" xlink:href="#radial-gradient"/><radialGradient id="radial-gradient-17" cx="126.75" cy="118.13" r="47.93" xlink:href="#radial-gradient"/><linearGradient id="linear-gradient-8" x1="202.3" y1="138.26" x2="250.2" y2="81.18" gradientUnits="userSpaceOnUse"><stop offset="0" stop-color="#21244d"/><stop offset="0.82" stop-color="#0075bf"/></linearGradient><linearGradient id="linear-gradient-9" x1="114.58" y1="115.4" x2="182.96" y2="183.77" gradientUnits="userSpaceOnUse"><stop offset="0.13" stop-color="#0075bf"/><stop offset="0.25" stop-color="#0271b9"/><stop offset="0.41" stop-color="#0665a9"/><stop offset="0.59" stop-color="#0e538f"/><stop offset="0.78" stop-color="#19386a"/><stop offset="0.91" stop-color="#21244d"/></linearGradient><linearGradient id="linear-gradient-10" x1="284.44" y1="127.36" x2="256.76" y2="203.39" gradientUnits="userSpaceOnUse"><stop offset="0" stop-color="#d8dd53"/><stop offset="0.26" stop-color="#59a64f"/><stop offset="0.44" stop-color="#00804d"/></linearGradient></defs><g id="Layer_2" data-name="Layer 2"><g id="option_2" data-name="option 2"><text class="cls-1" transform="translate(301.48 294.07) scale(1.37 1)">L<tspan class="cls-2" x="11.35" y="0">L</tspan><tspan x="22.25" y="0">C</tspan></text><text class="cls-3" transform="translate(39.19 264.99)">SUNRISE</text><path class="cls-4" d="M83.8,213.4H65.93v-5.49q0-3.84-.69-4.89A2.51,2.51,0,0,0,63,202a2.9,2.9,0,0,0-2.63,1.42,8.26,8.26,0,0,0-.89,4.3,12.17,12.17,0,0,0,1,5.58q1,1.88,5.44,4.52,12.84,7.62,16.18,12.52t3.34,15.76q0,7.91-1.85,11.66T76.4,264a28.33,28.33,0,0,1-12.34,2.54,27.6,27.6,0,0,1-13.19-2.93q-5.46-2.92-7.15-7.45T42,243.33v-4.84H59.9v9c0,2.77.25,4.56.75,5.35A2.91,2.91,0,0,0,63.32,254a3.15,3.15,0,0,0,2.86-1.51,8.67,8.67,0,0,0,.94-4.48c0-4.36-.6-7.21-1.78-8.55s-4.23-3.58-9-6.72a86,86,0,0,1-9.5-6.9A16,16,0,0,1,43,219.93a26.17,26.17,0,0,1-1.53-9.69q0-8.49,2.17-12.43a14.58,14.58,0,0,1,7-6.14,28,28,0,0,1,11.7-2.22,30.53,30.53,0,0,1,12.77,2.42q5.28,2.43,7,6.1t1.71,12.5Z"/><path class="cls-4" d="M135.17,191v49.45a85.1,85.1,0,0,1-.55,11.82,16.14,16.14,0,0,1-3.24,7,16.93,16.93,0,0,1-7.11,5.44,26.84,26.84,0,0,1-10.4,1.85,29.11,29.11,0,0,1-11.7-2.2,17.51,17.51,0,0,1-7.58-5.71,15.82,15.82,0,0,1-3-7.43q-.45-3.9-.45-16.42V191H110.4v55.48q0,4.85.52,6.2a2.06,2.06,0,0,0,2.13,1.35,2.22,2.22,0,0,0,2.35-1.49q.52-1.48.53-7V191Z"/><path class="cls-4" d="M185.58,191v74H168.71l-10-33.63V265H142.62V191h16.09l10.78,33.32V191Z"/><path class="cls-4" d="M193.3,191h13.62q13.62,0,18.44,1.05a12.69,12.69,0,0,1,7.86,5.37q3,4.32,3,13.78,0,8.64-2.15,11.61t-8.45,3.57c3.81.94,6.37,2.21,7.68,3.79a11.3,11.3,0,0,1,2.44,4.36q.48,2,.48,10.95V265H218.39V240.41c0-4-.31-6.42-.93-7.36s-2.27-1.42-4.92-1.42V265H193.3Zm19.24,12.66v16.45c2.17,0,3.68-.29,4.55-.89s1.3-2.52,1.3-5.78v-4.07c0-2.34-.42-3.88-1.26-4.61S214.77,203.66,212.54,203.66Z"/><path class="cls-4" d="M263,191v74H243.71V191Z"/><path class="cls-4" d="M311.44,213.4H293.57v-5.49c0-2.56-.23-4.19-.68-4.89A2.53,2.53,0,0,0,290.6,202a2.91,2.91,0,0,0-2.63,1.42,8.26,8.26,0,0,0-.89,4.3,12.3,12.3,0,0,0,1,5.58q1,1.88,5.44,4.52,12.86,7.62,16.19,12.52T313,246.07q0,7.91-1.85,11.66T304,264a28.33,28.33,0,0,1-12.34,2.54,27.6,27.6,0,0,1-13.19-2.93q-5.46-2.92-7.15-7.45t-1.69-12.84v-4.84h17.87v9c0,2.77.25,4.56.75,5.35A2.94,2.94,0,0,0,291,254a3.13,3.13,0,0,0,2.85-1.51,8.57,8.57,0,0,0,.94-4.48q0-6.54-1.78-8.55t-9-6.72a86,86,0,0,1-9.5-6.9,16,16,0,0,1-3.86-5.94,26.17,26.17,0,0,1-1.53-9.69q0-8.49,2.17-12.43a14.51,14.51,0,0,1,7-6.14,28,28,0,0,1,11.7-2.22,30.58,30.58,0,0,1,12.78,2.42c3.51,1.62,5.85,3.65,7,6.1s1.71,6.62,1.71,12.5Z"/><path class="cls-4" d="M319.07,191h32.09v14.81H338.31v14h12v14.08h-12v16.27h14.13V265H319.07Z"/><rect class="cls-5" x="41.55" y="303.98" width="310.42" height="5"/><text class="cls-6" transform="translate(40.22 294.07) scale(1.37 1)">IMPROVEMENTS</text><path class="cls-7" d="M69.2,150.49s-4.66,3.86-24.55,5.13c-3.28.21-21.8,8.23-25.36,21.12-1.21,4.38,7.19-11.22,23.43-14.25S65.81,157.57,69.2,150.49Z"/><path class="cls-8" d="M67.18,139.85s-6.72,10.3-37,5.83c-8.4-1.24-13.12-4.83-29.85,3.63-2,1,3.68-11.39,27.25-13.7C38.54,134.54,63.1,142,67.18,139.85Z"/><path class="cls-9" d="M66.89,129.79a35.67,35.67,0,0,1-22.89-10c-5.09-5-21.34-15.11-34-11.83-2.95.76,11.09-1,21.91,11.09C37.23,125.06,47.27,137.64,66.89,129.79Z"/><path class="cls-10" d="M69.13,117s-11.39,3.8-27.84-7.58C33.46,104,29.15,94.26,7.59,96.29c-3.27.3,13-6.45,29.9.56C44.82,99.88,48.94,107.6,69.13,117Z"/><path class="cls-11" d="M73.61,105.69S55.55,105,43.87,91.27c-4.25-5-13.06-27.08-33.23-27.83C7.87,63.34,29.75,57,42,73.5,46.87,80.11,53.93,93.27,73.61,105.69Z"/><path class="cls-12" d="M79.65,96.2s-13.57-.44-22.27-14.43C55,77.91,49.44,60.84,31.9,58.26,29.39,57.89,47.42,54.8,59,71.08,63.22,77,64.69,83,79.65,96.2Z"/><path class="cls-13" d="M87.47,88.62S70.15,83.84,62.38,57.67C59.28,47.24,59,34.44,44.25,26.91c-2.3-1.17,17.48-.46,25,21C72.11,56,71.07,70.5,87.47,88.62Z"/><path class="cls-14" d="M95.05,81.47s-14.2-5.23-16.57-33.58C78,42.59,73.7,30.7,63.17,26.16,60.25,24.9,80.94,30,85.84,44.67,88.14,51.58,85,63.36,95.05,81.47Z"/><path class="cls-15" d="M105.06,78.13S92.57,64.83,96.42,39c1.54-10.33,8.9-19.85,0-35.66-1.15-2,15.88,10.23,9.45,39.79C104.28,50.4,99.3,55.7,105.06,78.13Z"/><path class="cls-16" d="M115.41,74.68s-7.94-10-4.67-26.63c1.42-7.19,10.74-14.34,2-35.94-1.91-4.71,12.52,12.8,9.09,26.83C120.09,46.06,111.29,61.2,115.41,74.68Z"/><path class="cls-17" d="M126.09,73s-4-15.13,1.86-28.87c5.33-12.39,23.84-25.47,22.64-44-.11-1.69,5.52,16.46-4.39,32.78C141.87,40,130.83,50.42,126.09,73Z"/><path class="cls-18" d="M138.05,74s2.29-15,14.21-25.2c4-3.4,14.83-14.92,7.5-36.88-1.42-4.26,2.33,22.36-13.52,33C141.55,48.05,137.35,59.62,138.05,74Z"/><path class="cls-19" d="M149,76.56s5.27-14.86,24.76-25.77c4.27-2.39,23.35-13.93,21-34.74-.91-8.09,2.45,16.6-26.2,26C161,44.56,145.94,65.06,149,76.56Z"/><path class="cls-20" d="M158.45,81.08a51.32,51.32,0,0,1,21.73-17.22c2.85-1.2,19.55-8.44,20.37-31.47.13-3.65,2.45,7.23-24.87,24.79C172,59.54,158.52,70.58,158.45,81.08Z"/><path class="cls-21" d="M166.54,86.94s7.09-10.93,32-12.2c11.05-.57,30.59-10.21,32.08-27.58.81-9.45,2.53,8.36-32,18.11C189.64,67.78,175.5,69.38,166.54,86.94Z"/><path class="cls-22" d="M173.94,95.34a62.26,62.26,0,0,1,27.45-6.22c7.19,0,22.43-8.64,26.41-20.07,3-8.75,1.8,4.64-27.18,12.4C194.3,83.14,181.05,82.17,173.94,95.34Z"/><path class="cls-23" d="M75.45,157.4c11-8.07,31.22-21.42,45.28-40.82,11.06-15.26,19.33-15.82,61.27,2.91-1-3.41-7.33-23.91-28.84-34.73-20.74-10.42-40.21-4.12-43.71-2.92s-23.72,8.68-33.54,30.75C67,132.57,74.05,153.4,75.45,157.4Z"/><polygon class="cls-24" points="161.74 108.3 207.52 126.52 242.49 84.77 278.85 120.89 283.57 119.71 242.01 78.39 206.84 91.61 206.84 98.46 204.3 101 204.3 83.12 193.14 86.89 193.14 96.34 161.74 108.3"/><polygon class="cls-25" points="63.76 166.22 72.73 166.22 134.12 105.31 188.89 171.41 195.27 171.41 235.88 135.06 134.59 96.34 63.76 166.22"/><polygon class="cls-26" points="199.75 171.41 247.92 171.41 290.65 128.92 329.84 168.11 338.34 167.87 291.36 121.13 240.83 133.88 199.75 171.41"/><g id="windows"><path class="cls-27" d="M244.32,105.07v8.62h7.08a7.86,7.86,0,0,0-1.89-6.2A7.75,7.75,0,0,0,244.32,105.07Z"/><path class="cls-27" d="M241.48,105.07v8.62h-7a7.85,7.85,0,0,1,1.83-6.14A7.73,7.73,0,0,1,241.48,105.07Z"/><rect class="cls-27" x="244.32" y="116.35" width="7.15" height="7.15"/><rect class="cls-27" x="234.39" y="116.58" width="7.09" height="7.09"/><rect class="cls-27" x="122.93" y="157.4" width="8.85" height="8.85"/><rect class="cls-27" x="135.8" y="157.4" width="8.97" height="8.97"/><path class="cls-27" d="M135.8,142.79v10.45h8.41a9.36,9.36,0,0,0-2.27-7.74A9.08,9.08,0,0,0,135.8,142.79Z"/><path class="cls-27" d="M131.55,142.79v10.56h-8.62a10,10,0,0,1,2.9-8.11A9.45,9.45,0,0,1,131.55,142.79Z"/><rect class="cls-27" x="282.42" y="162.92" width="6.95" height="6.95"/><rect class="cls-27" x="292.39" y="162.92" width="6.95" height="6.95"/><path class="cls-27" d="M292.39,152.11V160h6.95a7,7,0,0,0-1.84-6A6.93,6.93,0,0,0,292.39,152.11Z"/><path class="cls-27" d="M289.37,152.1v8h-6.95a6.87,6.87,0,0,1,2.27-6.61A6.8,6.8,0,0,1,289.37,152.1Z"/></g><polygon class="cls-28" points="251.37 171.41 253.94 171.41 290.58 134.78 327.45 171.65 351.5 171.65 351.5 169.87 328.75 169.87 290.85 131.97 251.37 171.41"/><polygon class="cls-28" points="41.92 171.41 76.04 171.41 133.47 113.98 181.22 171.41 184.29 171.41 133.65 110.39 74.62 169.41 41.92 169.41 41.92 171.41"/><polygon class="cls-28" points="213.56 123.67 215.42 124.34 242.96 90.79 274.6 122.42 276.69 121.69 242.96 87.96 213.56 123.67"/></g></g></svg>